<mxfile host="app.diagrams.net" modified="2024-08-10T12:51:15.666Z" agent="Mozilla/5.0 (Macintosh; Intel Mac OS X 10_15_7) AppleWebKit/537.36 (KHTML, like Gecko) Chrome/127.0.0.0 Safari/537.36" etag="Ce1oAJcytneVAPWJ8V34" version="23.1.2" type="device">
  <diagram name="Page-1" id="wZpBxHjw-mC01odmX8Oj">
    <mxGraphModel dx="956" dy="507" grid="1" gridSize="10" guides="1" tooltips="1" connect="1" arrows="1" fold="1" page="1" pageScale="1" pageWidth="850" pageHeight="1100" math="0" shadow="0">
      <root>
        <mxCell id="0" />
        <mxCell id="1" parent="0" />
        <mxCell id="H5lp6cLrnP8mj0vaq85K-110" value="" style="rounded=0;whiteSpace=wrap;html=1;fillColor=#f8cecc;strokeColor=#b85450;" vertex="1" parent="1">
          <mxGeometry x="235" y="441" width="10" height="80" as="geometry" />
        </mxCell>
        <mxCell id="H5lp6cLrnP8mj0vaq85K-111" value="" style="rounded=0;whiteSpace=wrap;html=1;fillColor=#ffe6cc;strokeColor=#d79b00;" vertex="1" parent="1">
          <mxGeometry x="265.5" y="431.5" width="10" height="90" as="geometry" />
        </mxCell>
        <mxCell id="H5lp6cLrnP8mj0vaq85K-112" value="`" style="rounded=0;whiteSpace=wrap;html=1;fillColor=#ffe6cc;strokeColor=#d79b00;" vertex="1" parent="1">
          <mxGeometry x="205" y="450.5" width="10" height="70" as="geometry" />
        </mxCell>
        <mxCell id="H5lp6cLrnP8mj0vaq85K-113" value="" style="rounded=0;whiteSpace=wrap;html=1;fillColor=#ffe6cc;strokeColor=#d79b00;" vertex="1" parent="1">
          <mxGeometry x="145" y="471" width="10" height="50" as="geometry" />
        </mxCell>
        <mxCell id="H5lp6cLrnP8mj0vaq85K-114" value="" style="rounded=0;whiteSpace=wrap;html=1;fillColor=#f8cecc;strokeColor=#b85450;" vertex="1" parent="1">
          <mxGeometry x="55" y="501" width="10" height="20" as="geometry" />
        </mxCell>
        <mxCell id="H5lp6cLrnP8mj0vaq85K-115" value="" style="rounded=0;whiteSpace=wrap;html=1;fillColor=#dae8fc;strokeColor=#6c8ebf;" vertex="1" parent="1">
          <mxGeometry x="99" y="491" width="10" height="30" as="geometry" />
        </mxCell>
        <mxCell id="H5lp6cLrnP8mj0vaq85K-116" value="" style="rounded=0;whiteSpace=wrap;html=1;fillColor=#f8cecc;strokeColor=#b85450;" vertex="1" parent="1">
          <mxGeometry x="175" y="461" width="10" height="60" as="geometry" />
        </mxCell>
        <mxCell id="H5lp6cLrnP8mj0vaq85K-117" value="" style="rounded=0;whiteSpace=wrap;html=1;fillColor=#dae8fc;strokeColor=#6c8ebf;" vertex="1" parent="1">
          <mxGeometry x="160" y="471" width="10" height="50" as="geometry" />
        </mxCell>
        <mxCell id="H5lp6cLrnP8mj0vaq85K-118" value="" style="rounded=0;whiteSpace=wrap;html=1;" vertex="1" parent="1">
          <mxGeometry x="115" y="481" width="10" height="40" as="geometry" />
        </mxCell>
        <mxCell id="H5lp6cLrnP8mj0vaq85K-119" value="" style="rounded=0;whiteSpace=wrap;html=1;fillColor=#dae8fc;strokeColor=#6c8ebf;" vertex="1" parent="1">
          <mxGeometry x="280" y="422" width="10" height="100" as="geometry" />
        </mxCell>
        <mxCell id="H5lp6cLrnP8mj0vaq85K-120" value="" style="rounded=0;whiteSpace=wrap;html=1;fillColor=#d5e8d4;strokeColor=#82b366;" vertex="1" parent="1">
          <mxGeometry x="250" y="441" width="10" height="80" as="geometry" />
        </mxCell>
        <mxCell id="H5lp6cLrnP8mj0vaq85K-121" value="" style="rounded=0;whiteSpace=wrap;html=1;fillColor=#d5e8d4;strokeColor=#82b366;" vertex="1" parent="1">
          <mxGeometry x="69" y="501" width="10" height="20" as="geometry" />
        </mxCell>
        <mxCell id="H5lp6cLrnP8mj0vaq85K-122" value="" style="rounded=0;whiteSpace=wrap;html=1;fillColor=#d5e8d4;strokeColor=#82b366;" vertex="1" parent="1">
          <mxGeometry x="130" y="471" width="10" height="50" as="geometry" />
        </mxCell>
        <mxCell id="H5lp6cLrnP8mj0vaq85K-127" value="" style="rounded=0;whiteSpace=wrap;html=1;fillColor=#ffe6cc;strokeColor=#d79b00;" vertex="1" parent="1">
          <mxGeometry x="84" y="491" width="10" height="30" as="geometry" />
        </mxCell>
        <mxCell id="H5lp6cLrnP8mj0vaq85K-128" value="" style="rounded=0;whiteSpace=wrap;html=1;fillColor=#dae8fc;strokeColor=#6c8ebf;" vertex="1" parent="1">
          <mxGeometry x="220" y="450.5" width="10" height="70" as="geometry" />
        </mxCell>
        <mxCell id="H5lp6cLrnP8mj0vaq85K-129" value="" style="rounded=0;whiteSpace=wrap;html=1;fillColor=#d5e8d4;strokeColor=#82b366;" vertex="1" parent="1">
          <mxGeometry x="190" y="461" width="10" height="60" as="geometry" />
        </mxCell>
        <mxCell id="H5lp6cLrnP8mj0vaq85K-131" value="" style="rounded=0;whiteSpace=wrap;html=1;fillColor=#f8cecc;strokeColor=#b85450;" vertex="1" parent="1">
          <mxGeometry x="115" y="481" width="10" height="40" as="geometry" />
        </mxCell>
        <mxCell id="H5lp6cLrnP8mj0vaq85K-136" value="&lt;div style=&quot;text-align: center;&quot;&gt;&lt;span style=&quot;background-color: initial;&quot;&gt;&lt;font size=&quot;1&quot;&gt;&lt;b&gt;e)&amp;nbsp;&lt;/b&gt;&lt;/font&gt;&lt;/span&gt;&lt;span style=&quot;font-size: x-small; background-color: initial;&quot;&gt;dataset in d) with &lt;u&gt;interleaved assignment&lt;/u&gt; of the 16 samples to 4 processes (color-coded)&lt;/span&gt;&lt;/div&gt;" style="text;whiteSpace=wrap;html=1;" vertex="1" parent="1">
          <mxGeometry x="69" y="523" width="229" height="40" as="geometry" />
        </mxCell>
        <mxCell id="H5lp6cLrnP8mj0vaq85K-188" value="" style="group" vertex="1" connectable="0" parent="1">
          <mxGeometry x="373.5" y="414" width="277" height="146" as="geometry" />
        </mxCell>
        <mxCell id="H5lp6cLrnP8mj0vaq85K-187" value="" style="rounded=0;whiteSpace=wrap;html=1;fillColor=#dae8fc;strokeColor=#6c8ebf;" vertex="1" parent="H5lp6cLrnP8mj0vaq85K-188">
          <mxGeometry x="214" y="3.6729559748427674" width="63" height="101.9245283018868" as="geometry" />
        </mxCell>
        <mxCell id="H5lp6cLrnP8mj0vaq85K-182" value="" style="rounded=0;whiteSpace=wrap;html=1;fillColor=#ffe6cc;strokeColor=#d79b00;" vertex="1" parent="H5lp6cLrnP8mj0vaq85K-188">
          <mxGeometry x="145.5" y="13.773584905660378" width="63.5" height="91.82389937106919" as="geometry" />
        </mxCell>
        <mxCell id="H5lp6cLrnP8mj0vaq85K-177" value="" style="rounded=0;whiteSpace=wrap;html=1;fillColor=#d5e8d4;strokeColor=#82b366;" vertex="1" parent="H5lp6cLrnP8mj0vaq85K-188">
          <mxGeometry x="74" y="22.037735849056602" width="66" height="83.55974842767296" as="geometry" />
        </mxCell>
        <mxCell id="H5lp6cLrnP8mj0vaq85K-144" value="" style="rounded=0;whiteSpace=wrap;html=1;fillColor=#f8cecc;strokeColor=#b85450;align=left;verticalAlign=top;container=0;" vertex="1" parent="H5lp6cLrnP8mj0vaq85K-188">
          <mxGeometry y="22.037735849056602" width="65" height="83.55974842767296" as="geometry" />
        </mxCell>
        <mxCell id="H5lp6cLrnP8mj0vaq85K-158" value="&lt;font style=&quot;font-size: 9px;&quot;&gt;proc 0&lt;/font&gt;" style="text;html=1;strokeColor=none;fillColor=none;align=center;verticalAlign=middle;whiteSpace=wrap;rounded=0;container=0;" vertex="1" parent="H5lp6cLrnP8mj0vaq85K-188">
          <mxGeometry y="19.28301886792453" width="35" height="18.364779874213838" as="geometry" />
        </mxCell>
        <mxCell id="H5lp6cLrnP8mj0vaq85K-159" value="&lt;font style=&quot;font-size: 9px;&quot;&gt;proc 1&lt;/font&gt;" style="text;html=1;strokeColor=none;fillColor=none;align=center;verticalAlign=middle;whiteSpace=wrap;rounded=0;container=0;" vertex="1" parent="H5lp6cLrnP8mj0vaq85K-188">
          <mxGeometry x="73" y="19.28301886792453" width="35" height="18.364779874213838" as="geometry" />
        </mxCell>
        <mxCell id="H5lp6cLrnP8mj0vaq85K-160" value="&lt;font style=&quot;font-size: 9px;&quot;&gt;proc 3&lt;/font&gt;" style="text;html=1;strokeColor=none;fillColor=none;align=center;verticalAlign=middle;whiteSpace=wrap;rounded=0;container=0;" vertex="1" parent="H5lp6cLrnP8mj0vaq85K-188">
          <mxGeometry x="212" width="35" height="18.364779874213838" as="geometry" />
        </mxCell>
        <mxCell id="H5lp6cLrnP8mj0vaq85K-161" value="&lt;font style=&quot;font-size: 9px;&quot;&gt;proc 2&lt;/font&gt;" style="text;html=1;strokeColor=none;fillColor=none;align=center;verticalAlign=middle;whiteSpace=wrap;rounded=0;container=0;" vertex="1" parent="H5lp6cLrnP8mj0vaq85K-188">
          <mxGeometry x="145" y="10.10062893081761" width="35" height="18.364779874213838" as="geometry" />
        </mxCell>
        <mxCell id="H5lp6cLrnP8mj0vaq85K-165" value="&lt;div style=&quot;text-align: center;&quot;&gt;&lt;span style=&quot;background-color: initial;&quot;&gt;&lt;font size=&quot;1&quot;&gt;&lt;b&gt;f)&lt;/b&gt;&amp;nbsp;dataset in e) after distributed loading&lt;/font&gt;&lt;/span&gt;&lt;/div&gt;" style="text;whiteSpace=wrap;html=1;container=0;" vertex="1" parent="H5lp6cLrnP8mj0vaq85K-188">
          <mxGeometry x="60" y="108.35220125786164" width="189" height="20.20125786163522" as="geometry" />
        </mxCell>
        <mxCell id="H5lp6cLrnP8mj0vaq85K-166" value="" style="rounded=0;whiteSpace=wrap;html=1;fillColor=#FFFFFF;strokeColor=#000000;" vertex="1" parent="H5lp6cLrnP8mj0vaq85K-188">
          <mxGeometry x="50.5" y="28.465408805031448" width="10" height="73.45911949685535" as="geometry" />
        </mxCell>
        <mxCell id="H5lp6cLrnP8mj0vaq85K-167" value="" style="rounded=0;whiteSpace=wrap;html=1;fillColor=#FFFFFF;strokeColor=#000000;" vertex="1" parent="H5lp6cLrnP8mj0vaq85K-188">
          <mxGeometry x="5" y="83.55974842767296" width="10" height="18.364779874213838" as="geometry" />
        </mxCell>
        <mxCell id="H5lp6cLrnP8mj0vaq85K-168" value="" style="rounded=0;whiteSpace=wrap;html=1;fillColor=#FFFFFF;strokeColor=#000000;" vertex="1" parent="H5lp6cLrnP8mj0vaq85K-188">
          <mxGeometry x="35.5" y="46.83018867924528" width="10" height="55.09433962264151" as="geometry" />
        </mxCell>
        <mxCell id="H5lp6cLrnP8mj0vaq85K-169" value="" style="rounded=0;whiteSpace=wrap;html=1;fillColor=#FFFFFF;strokeColor=#000000;" vertex="1" parent="H5lp6cLrnP8mj0vaq85K-188">
          <mxGeometry x="20" y="65.19496855345912" width="10" height="36.729559748427675" as="geometry" />
        </mxCell>
        <mxCell id="H5lp6cLrnP8mj0vaq85K-172" value="" style="rounded=0;whiteSpace=wrap;html=1;fillColor=#FFFFFF;strokeColor=#000000;" vertex="1" parent="H5lp6cLrnP8mj0vaq85K-188">
          <mxGeometry x="124" y="28.465408805031448" width="10" height="73.45911949685535" as="geometry" />
        </mxCell>
        <mxCell id="H5lp6cLrnP8mj0vaq85K-173" value="" style="rounded=0;whiteSpace=wrap;html=1;fillColor=#FFFFFF;strokeColor=#000000;" vertex="1" parent="H5lp6cLrnP8mj0vaq85K-188">
          <mxGeometry x="79" y="83.55974842767296" width="10" height="18.364779874213838" as="geometry" />
        </mxCell>
        <mxCell id="H5lp6cLrnP8mj0vaq85K-174" value="" style="rounded=0;whiteSpace=wrap;html=1;fillColor=#FFFFFF;strokeColor=#000000;" vertex="1" parent="H5lp6cLrnP8mj0vaq85K-188">
          <mxGeometry x="94" y="56.0125786163522" width="10" height="45.911949685534594" as="geometry" />
        </mxCell>
        <mxCell id="H5lp6cLrnP8mj0vaq85K-175" value="" style="rounded=0;whiteSpace=wrap;html=1;fillColor=#FFFFFF;strokeColor=#000000;" vertex="1" parent="H5lp6cLrnP8mj0vaq85K-188">
          <mxGeometry x="109" y="46.83018867924528" width="10" height="55.09433962264151" as="geometry" />
        </mxCell>
        <mxCell id="H5lp6cLrnP8mj0vaq85K-178" value="" style="rounded=0;whiteSpace=wrap;html=1;fillColor=#FFFFFF;strokeColor=#000000;" vertex="1" parent="H5lp6cLrnP8mj0vaq85K-188">
          <mxGeometry x="195" y="18.364779874213838" width="10" height="82.64150943396227" as="geometry" />
        </mxCell>
        <mxCell id="H5lp6cLrnP8mj0vaq85K-179" value="`" style="rounded=0;whiteSpace=wrap;html=1;fillColor=#FFFFFF;strokeColor=#000000;" vertex="1" parent="H5lp6cLrnP8mj0vaq85K-188">
          <mxGeometry x="180" y="37.18867924528302" width="10" height="64.27672955974843" as="geometry" />
        </mxCell>
        <mxCell id="H5lp6cLrnP8mj0vaq85K-180" value="" style="rounded=0;whiteSpace=wrap;html=1;fillColor=#FFFFFF;strokeColor=#000000;" vertex="1" parent="H5lp6cLrnP8mj0vaq85K-188">
          <mxGeometry x="165" y="55.55345911949686" width="10" height="45.911949685534594" as="geometry" />
        </mxCell>
        <mxCell id="H5lp6cLrnP8mj0vaq85K-181" value="" style="rounded=0;whiteSpace=wrap;html=1;fillColor=#FFFFFF;strokeColor=#000000;" vertex="1" parent="H5lp6cLrnP8mj0vaq85K-188">
          <mxGeometry x="150" y="73.91823899371069" width="10" height="27.547169811320757" as="geometry" />
        </mxCell>
        <mxCell id="H5lp6cLrnP8mj0vaq85K-183" value="" style="rounded=0;whiteSpace=wrap;html=1;fillColor=#FFFFFF;strokeColor=#000000;" vertex="1" parent="H5lp6cLrnP8mj0vaq85K-188">
          <mxGeometry x="217" y="73.45911949685535" width="10" height="27.547169811320757" as="geometry" />
        </mxCell>
        <mxCell id="H5lp6cLrnP8mj0vaq85K-184" value="" style="rounded=0;whiteSpace=wrap;html=1;fillColor=#FFFFFF;strokeColor=#000000;" vertex="1" parent="H5lp6cLrnP8mj0vaq85K-188">
          <mxGeometry x="232" y="55.55345911949686" width="10" height="45.911949685534594" as="geometry" />
        </mxCell>
        <mxCell id="H5lp6cLrnP8mj0vaq85K-185" value="" style="rounded=0;whiteSpace=wrap;html=1;fillColor=#FFFFFF;strokeColor=#000000;" vertex="1" parent="H5lp6cLrnP8mj0vaq85K-188">
          <mxGeometry x="262" y="9.182389937106919" width="10" height="91.82389937106919" as="geometry" />
        </mxCell>
        <mxCell id="H5lp6cLrnP8mj0vaq85K-186" value="" style="rounded=0;whiteSpace=wrap;html=1;fillColor=#FFFFFF;strokeColor=#000000;" vertex="1" parent="H5lp6cLrnP8mj0vaq85K-188">
          <mxGeometry x="247" y="36.729559748427675" width="10" height="64.27672955974843" as="geometry" />
        </mxCell>
        <mxCell id="H5lp6cLrnP8mj0vaq85K-190" value="" style="group" vertex="1" connectable="0" parent="1">
          <mxGeometry x="375" y="237" width="275" height="140" as="geometry" />
        </mxCell>
        <mxCell id="H5lp6cLrnP8mj0vaq85K-76" value="" style="rounded=0;whiteSpace=wrap;html=1;fillColor=#dae8fc;strokeColor=#6c8ebf;align=left;verticalAlign=top;" vertex="1" parent="H5lp6cLrnP8mj0vaq85K-190">
          <mxGeometry x="210" y="3" width="65" height="121" as="geometry" />
        </mxCell>
        <mxCell id="H5lp6cLrnP8mj0vaq85K-77" value="" style="rounded=0;whiteSpace=wrap;html=1;fillColor=#fff2cc;strokeColor=#d6b656;align=left;verticalAlign=top;" vertex="1" parent="H5lp6cLrnP8mj0vaq85K-190">
          <mxGeometry x="140" y="36" width="65" height="88" as="geometry" />
        </mxCell>
        <mxCell id="H5lp6cLrnP8mj0vaq85K-78" value="" style="rounded=0;whiteSpace=wrap;html=1;fillColor=#d5e8d4;strokeColor=#82b366;align=left;verticalAlign=top;" vertex="1" parent="H5lp6cLrnP8mj0vaq85K-190">
          <mxGeometry x="70" y="49" width="65" height="75" as="geometry" />
        </mxCell>
        <mxCell id="H5lp6cLrnP8mj0vaq85K-79" value="" style="rounded=0;whiteSpace=wrap;html=1;fillColor=#f8cecc;strokeColor=#b85450;align=left;verticalAlign=top;" vertex="1" parent="H5lp6cLrnP8mj0vaq85K-190">
          <mxGeometry y="76" width="65" height="48" as="geometry" />
        </mxCell>
        <mxCell id="H5lp6cLrnP8mj0vaq85K-81" value="" style="rounded=0;whiteSpace=wrap;html=1;" vertex="1" parent="H5lp6cLrnP8mj0vaq85K-190">
          <mxGeometry x="215" y="39" width="10" height="80" as="geometry" />
        </mxCell>
        <mxCell id="H5lp6cLrnP8mj0vaq85K-82" value="" style="rounded=0;whiteSpace=wrap;html=1;" vertex="1" parent="H5lp6cLrnP8mj0vaq85K-190">
          <mxGeometry x="245.5" y="29.5" width="10" height="90" as="geometry" />
        </mxCell>
        <mxCell id="H5lp6cLrnP8mj0vaq85K-83" value="" style="rounded=0;whiteSpace=wrap;html=1;" vertex="1" parent="H5lp6cLrnP8mj0vaq85K-190">
          <mxGeometry x="175" y="48.5" width="10" height="70" as="geometry" />
        </mxCell>
        <mxCell id="H5lp6cLrnP8mj0vaq85K-84" value="" style="rounded=0;whiteSpace=wrap;html=1;" vertex="1" parent="H5lp6cLrnP8mj0vaq85K-190">
          <mxGeometry x="105" y="69" width="10" height="50" as="geometry" />
        </mxCell>
        <mxCell id="H5lp6cLrnP8mj0vaq85K-85" value="" style="rounded=0;whiteSpace=wrap;html=1;" vertex="1" parent="H5lp6cLrnP8mj0vaq85K-190">
          <mxGeometry x="5" y="99" width="10" height="20" as="geometry" />
        </mxCell>
        <mxCell id="H5lp6cLrnP8mj0vaq85K-86" value="" style="rounded=0;whiteSpace=wrap;html=1;" vertex="1" parent="H5lp6cLrnP8mj0vaq85K-190">
          <mxGeometry x="49" y="89" width="10" height="30" as="geometry" />
        </mxCell>
        <mxCell id="H5lp6cLrnP8mj0vaq85K-87" value="" style="rounded=0;whiteSpace=wrap;html=1;" vertex="1" parent="H5lp6cLrnP8mj0vaq85K-190">
          <mxGeometry x="145" y="59" width="10" height="60" as="geometry" />
        </mxCell>
        <mxCell id="H5lp6cLrnP8mj0vaq85K-88" value="" style="rounded=0;whiteSpace=wrap;html=1;" vertex="1" parent="H5lp6cLrnP8mj0vaq85K-190">
          <mxGeometry x="120" y="69" width="10" height="50" as="geometry" />
        </mxCell>
        <mxCell id="H5lp6cLrnP8mj0vaq85K-89" value="" style="rounded=0;whiteSpace=wrap;html=1;" vertex="1" parent="H5lp6cLrnP8mj0vaq85K-190">
          <mxGeometry x="75" y="79" width="10" height="40" as="geometry" />
        </mxCell>
        <mxCell id="H5lp6cLrnP8mj0vaq85K-91" value="" style="rounded=0;whiteSpace=wrap;html=1;" vertex="1" parent="H5lp6cLrnP8mj0vaq85K-190">
          <mxGeometry x="260" y="19" width="10" height="100" as="geometry" />
        </mxCell>
        <mxCell id="H5lp6cLrnP8mj0vaq85K-92" value="" style="rounded=0;whiteSpace=wrap;html=1;" vertex="1" parent="H5lp6cLrnP8mj0vaq85K-190">
          <mxGeometry x="230" y="39" width="10" height="80" as="geometry" />
        </mxCell>
        <mxCell id="H5lp6cLrnP8mj0vaq85K-93" value="" style="rounded=0;whiteSpace=wrap;html=1;" vertex="1" parent="H5lp6cLrnP8mj0vaq85K-190">
          <mxGeometry x="19" y="99" width="10" height="20" as="geometry" />
        </mxCell>
        <mxCell id="H5lp6cLrnP8mj0vaq85K-94" value="" style="rounded=0;whiteSpace=wrap;html=1;" vertex="1" parent="H5lp6cLrnP8mj0vaq85K-190">
          <mxGeometry x="90" y="69" width="10" height="50" as="geometry" />
        </mxCell>
        <mxCell id="H5lp6cLrnP8mj0vaq85K-95" value="&lt;font style=&quot;font-size: 9px;&quot;&gt;proc 0&lt;/font&gt;" style="text;html=1;strokeColor=none;fillColor=none;align=center;verticalAlign=middle;whiteSpace=wrap;rounded=0;" vertex="1" parent="H5lp6cLrnP8mj0vaq85K-190">
          <mxGeometry y="74" width="35" height="20" as="geometry" />
        </mxCell>
        <mxCell id="H5lp6cLrnP8mj0vaq85K-96" value="&lt;font style=&quot;font-size: 9px;&quot;&gt;proc 1&lt;/font&gt;" style="text;html=1;strokeColor=none;fillColor=none;align=center;verticalAlign=middle;whiteSpace=wrap;rounded=0;" vertex="1" parent="H5lp6cLrnP8mj0vaq85K-190">
          <mxGeometry x="70" y="47" width="35" height="20" as="geometry" />
        </mxCell>
        <mxCell id="H5lp6cLrnP8mj0vaq85K-97" value="&lt;font style=&quot;font-size: 9px;&quot;&gt;proc 2&lt;/font&gt;" style="text;html=1;strokeColor=none;fillColor=none;align=center;verticalAlign=middle;whiteSpace=wrap;rounded=0;" vertex="1" parent="H5lp6cLrnP8mj0vaq85K-190">
          <mxGeometry x="139" y="32" width="35" height="20" as="geometry" />
        </mxCell>
        <mxCell id="H5lp6cLrnP8mj0vaq85K-98" value="&lt;font style=&quot;font-size: 9px;&quot;&gt;proc 3&lt;/font&gt;" style="text;html=1;strokeColor=none;fillColor=none;align=center;verticalAlign=middle;whiteSpace=wrap;rounded=0;" vertex="1" parent="H5lp6cLrnP8mj0vaq85K-190">
          <mxGeometry x="208.5" width="35" height="20" as="geometry" />
        </mxCell>
        <mxCell id="H5lp6cLrnP8mj0vaq85K-99" value="" style="rounded=0;whiteSpace=wrap;html=1;" vertex="1" parent="H5lp6cLrnP8mj0vaq85K-190">
          <mxGeometry x="34" y="89" width="10" height="30" as="geometry" />
        </mxCell>
        <mxCell id="H5lp6cLrnP8mj0vaq85K-103" value="" style="rounded=0;whiteSpace=wrap;html=1;" vertex="1" parent="H5lp6cLrnP8mj0vaq85K-190">
          <mxGeometry x="190" y="48.5" width="10" height="70" as="geometry" />
        </mxCell>
        <mxCell id="H5lp6cLrnP8mj0vaq85K-104" value="" style="rounded=0;whiteSpace=wrap;html=1;" vertex="1" parent="H5lp6cLrnP8mj0vaq85K-190">
          <mxGeometry x="160" y="59" width="10" height="60" as="geometry" />
        </mxCell>
        <mxCell id="H5lp6cLrnP8mj0vaq85K-105" value="&lt;div style=&quot;text-align: center;&quot;&gt;&lt;span style=&quot;background-color: initial;&quot;&gt;&lt;font size=&quot;1&quot;&gt;&lt;b&gt;d)&lt;/b&gt;&amp;nbsp;dataset in b) after &lt;u&gt;distributed sorting&lt;/u&gt;&lt;/font&gt;&lt;/span&gt;&lt;/div&gt;" style="text;whiteSpace=wrap;html=1;" vertex="1" parent="H5lp6cLrnP8mj0vaq85K-190">
          <mxGeometry x="58.25" y="122" width="179.75" height="18" as="geometry" />
        </mxCell>
        <mxCell id="H5lp6cLrnP8mj0vaq85K-191" value="" style="group" vertex="1" connectable="0" parent="1">
          <mxGeometry x="43" y="233" width="276" height="146" as="geometry" />
        </mxCell>
        <mxCell id="H5lp6cLrnP8mj0vaq85K-73" value="&lt;div style=&quot;text-align: center;&quot;&gt;&lt;span style=&quot;background-color: initial;&quot;&gt;&lt;font size=&quot;1&quot;&gt;&lt;b&gt;c)&lt;/b&gt;&amp;nbsp;dataset in b) after &lt;u&gt;local sorting&lt;/u&gt;&lt;/font&gt;&lt;/span&gt;&lt;/div&gt;" style="text;whiteSpace=wrap;html=1;" vertex="1" parent="H5lp6cLrnP8mj0vaq85K-191">
          <mxGeometry x="68.25" y="126" width="165.75" height="20" as="geometry" />
        </mxCell>
        <mxCell id="H5lp6cLrnP8mj0vaq85K-47" value="" style="rounded=0;whiteSpace=wrap;html=1;fillColor=#dae8fc;strokeColor=#6c8ebf;align=left;verticalAlign=top;" vertex="1" parent="H5lp6cLrnP8mj0vaq85K-191">
          <mxGeometry x="211" y="3" width="65" height="125" as="geometry" />
        </mxCell>
        <mxCell id="H5lp6cLrnP8mj0vaq85K-48" value="" style="rounded=0;whiteSpace=wrap;html=1;fillColor=#fff2cc;strokeColor=#d6b656;align=left;verticalAlign=top;" vertex="1" parent="H5lp6cLrnP8mj0vaq85K-191">
          <mxGeometry x="141" y="33" width="65" height="95" as="geometry" />
        </mxCell>
        <mxCell id="H5lp6cLrnP8mj0vaq85K-49" value="" style="rounded=0;whiteSpace=wrap;html=1;fillColor=#d5e8d4;strokeColor=#82b366;align=left;verticalAlign=top;" vertex="1" parent="H5lp6cLrnP8mj0vaq85K-191">
          <mxGeometry x="71" y="53" width="65" height="75" as="geometry" />
        </mxCell>
        <mxCell id="H5lp6cLrnP8mj0vaq85K-50" value="" style="rounded=0;whiteSpace=wrap;html=1;fillColor=#f8cecc;strokeColor=#b85450;align=left;verticalAlign=top;" vertex="1" parent="H5lp6cLrnP8mj0vaq85K-191">
          <mxGeometry x="1" y="13" width="65" height="115" as="geometry" />
        </mxCell>
        <mxCell id="H5lp6cLrnP8mj0vaq85K-51" value="" style="rounded=0;whiteSpace=wrap;html=1;" vertex="1" parent="H5lp6cLrnP8mj0vaq85K-191">
          <mxGeometry x="6" y="63" width="10" height="60" as="geometry" />
        </mxCell>
        <mxCell id="H5lp6cLrnP8mj0vaq85K-52" value="" style="rounded=0;whiteSpace=wrap;html=1;" vertex="1" parent="H5lp6cLrnP8mj0vaq85K-191">
          <mxGeometry x="35" y="43" width="10" height="80" as="geometry" />
        </mxCell>
        <mxCell id="H5lp6cLrnP8mj0vaq85K-53" value="" style="rounded=0;whiteSpace=wrap;html=1;" vertex="1" parent="H5lp6cLrnP8mj0vaq85K-191">
          <mxGeometry x="50" y="33" width="10" height="90" as="geometry" />
        </mxCell>
        <mxCell id="H5lp6cLrnP8mj0vaq85K-54" value="" style="rounded=0;whiteSpace=wrap;html=1;" vertex="1" parent="H5lp6cLrnP8mj0vaq85K-191">
          <mxGeometry x="21" y="53" width="10" height="70" as="geometry" />
        </mxCell>
        <mxCell id="H5lp6cLrnP8mj0vaq85K-55" value="" style="rounded=0;whiteSpace=wrap;html=1;" vertex="1" parent="H5lp6cLrnP8mj0vaq85K-191">
          <mxGeometry x="121" y="73" width="10" height="50" as="geometry" />
        </mxCell>
        <mxCell id="H5lp6cLrnP8mj0vaq85K-56" value="" style="rounded=0;whiteSpace=wrap;html=1;" vertex="1" parent="H5lp6cLrnP8mj0vaq85K-191">
          <mxGeometry x="76" y="103" width="10" height="20" as="geometry" />
        </mxCell>
        <mxCell id="H5lp6cLrnP8mj0vaq85K-57" value="" style="rounded=0;whiteSpace=wrap;html=1;" vertex="1" parent="H5lp6cLrnP8mj0vaq85K-191">
          <mxGeometry x="106" y="93" width="10" height="30" as="geometry" />
        </mxCell>
        <mxCell id="H5lp6cLrnP8mj0vaq85K-58" value="" style="rounded=0;whiteSpace=wrap;html=1;" vertex="1" parent="H5lp6cLrnP8mj0vaq85K-191">
          <mxGeometry x="175" y="63" width="10" height="60" as="geometry" />
        </mxCell>
        <mxCell id="H5lp6cLrnP8mj0vaq85K-59" value="" style="rounded=0;whiteSpace=wrap;html=1;" vertex="1" parent="H5lp6cLrnP8mj0vaq85K-191">
          <mxGeometry x="161" y="73" width="10" height="50" as="geometry" />
        </mxCell>
        <mxCell id="H5lp6cLrnP8mj0vaq85K-60" value="" style="rounded=0;whiteSpace=wrap;html=1;" vertex="1" parent="H5lp6cLrnP8mj0vaq85K-191">
          <mxGeometry x="146" y="83" width="10" height="40" as="geometry" />
        </mxCell>
        <mxCell id="H5lp6cLrnP8mj0vaq85K-61" value="" style="rounded=0;whiteSpace=wrap;html=1;" vertex="1" parent="H5lp6cLrnP8mj0vaq85K-191">
          <mxGeometry x="191" y="53" width="10" height="70" as="geometry" />
        </mxCell>
        <mxCell id="H5lp6cLrnP8mj0vaq85K-62" value="" style="rounded=0;whiteSpace=wrap;html=1;" vertex="1" parent="H5lp6cLrnP8mj0vaq85K-191">
          <mxGeometry x="261" y="23" width="10" height="100" as="geometry" />
        </mxCell>
        <mxCell id="H5lp6cLrnP8mj0vaq85K-63" value="" style="rounded=0;whiteSpace=wrap;html=1;" vertex="1" parent="H5lp6cLrnP8mj0vaq85K-191">
          <mxGeometry x="246" y="43" width="10" height="80" as="geometry" />
        </mxCell>
        <mxCell id="H5lp6cLrnP8mj0vaq85K-64" value="" style="rounded=0;whiteSpace=wrap;html=1;" vertex="1" parent="H5lp6cLrnP8mj0vaq85K-191">
          <mxGeometry x="216" y="103" width="10" height="20" as="geometry" />
        </mxCell>
        <mxCell id="H5lp6cLrnP8mj0vaq85K-65" value="" style="rounded=0;whiteSpace=wrap;html=1;" vertex="1" parent="H5lp6cLrnP8mj0vaq85K-191">
          <mxGeometry x="230.5" y="73" width="10" height="50" as="geometry" />
        </mxCell>
        <mxCell id="H5lp6cLrnP8mj0vaq85K-66" value="&lt;font style=&quot;font-size: 9px;&quot;&gt;proc 0&lt;/font&gt;" style="text;html=1;strokeColor=none;fillColor=none;align=center;verticalAlign=middle;whiteSpace=wrap;rounded=0;" vertex="1" parent="H5lp6cLrnP8mj0vaq85K-191">
          <mxGeometry y="10" width="35" height="20" as="geometry" />
        </mxCell>
        <mxCell id="H5lp6cLrnP8mj0vaq85K-67" value="&lt;font style=&quot;font-size: 9px;&quot;&gt;proc 1&lt;/font&gt;" style="text;html=1;strokeColor=none;fillColor=none;align=center;verticalAlign=middle;whiteSpace=wrap;rounded=0;" vertex="1" parent="H5lp6cLrnP8mj0vaq85K-191">
          <mxGeometry x="71" y="51" width="35" height="20" as="geometry" />
        </mxCell>
        <mxCell id="H5lp6cLrnP8mj0vaq85K-68" value="&lt;font style=&quot;font-size: 9px;&quot;&gt;proc 2&lt;/font&gt;" style="text;html=1;strokeColor=none;fillColor=none;align=center;verticalAlign=middle;whiteSpace=wrap;rounded=0;" vertex="1" parent="H5lp6cLrnP8mj0vaq85K-191">
          <mxGeometry x="140" y="29" width="35" height="20" as="geometry" />
        </mxCell>
        <mxCell id="H5lp6cLrnP8mj0vaq85K-69" value="&lt;font style=&quot;font-size: 9px;&quot;&gt;proc 3&lt;/font&gt;" style="text;html=1;strokeColor=none;fillColor=none;align=center;verticalAlign=middle;whiteSpace=wrap;rounded=0;" vertex="1" parent="H5lp6cLrnP8mj0vaq85K-191">
          <mxGeometry x="208.5" width="35" height="20" as="geometry" />
        </mxCell>
        <mxCell id="H5lp6cLrnP8mj0vaq85K-70" value="" style="rounded=0;whiteSpace=wrap;html=1;" vertex="1" parent="H5lp6cLrnP8mj0vaq85K-191">
          <mxGeometry x="91" y="93" width="10" height="30" as="geometry" />
        </mxCell>
        <mxCell id="H5lp6cLrnP8mj0vaq85K-194" value="&lt;div style=&quot;text-align: center;&quot;&gt;&lt;span style=&quot;background-color: initial;&quot;&gt;&lt;font size=&quot;1&quot;&gt;&lt;b&gt;a) &lt;/b&gt;original dataset with &lt;u&gt;interleaved assignment&lt;/u&gt; of 16 samples (X) of variable lengths (Y) to 4 processes (color-coded)&lt;/font&gt;&lt;/span&gt;&lt;/div&gt;" style="text;whiteSpace=wrap;html=1;" vertex="1" parent="1">
          <mxGeometry x="40" y="164" width="280" height="39" as="geometry" />
        </mxCell>
        <mxCell id="H5lp6cLrnP8mj0vaq85K-72" value="&lt;div style=&quot;text-align: center;&quot;&gt;&lt;span style=&quot;background-color: initial;&quot;&gt;&lt;font size=&quot;1&quot;&gt;&lt;b&gt;b)&lt;/b&gt;&amp;nbsp;dataset in a) after distributed data loading&lt;/font&gt;&lt;/span&gt;&lt;/div&gt;" style="text;whiteSpace=wrap;html=1;" vertex="1" parent="1">
          <mxGeometry x="420" y="167" width="204" height="17" as="geometry" />
        </mxCell>
        <mxCell id="H5lp6cLrnP8mj0vaq85K-41" value="" style="rounded=0;whiteSpace=wrap;html=1;fillColor=#dae8fc;strokeColor=#6c8ebf;align=left;verticalAlign=top;" vertex="1" parent="1">
          <mxGeometry x="585" y="43" width="65" height="125" as="geometry" />
        </mxCell>
        <mxCell id="H5lp6cLrnP8mj0vaq85K-40" value="" style="rounded=0;whiteSpace=wrap;html=1;fillColor=#fff2cc;strokeColor=#d6b656;align=left;verticalAlign=top;" vertex="1" parent="1">
          <mxGeometry x="515" y="73" width="65" height="95" as="geometry" />
        </mxCell>
        <mxCell id="H5lp6cLrnP8mj0vaq85K-38" value="" style="rounded=0;whiteSpace=wrap;html=1;fillColor=#d5e8d4;strokeColor=#82b366;align=left;verticalAlign=top;" vertex="1" parent="1">
          <mxGeometry x="445" y="93" width="65" height="75" as="geometry" />
        </mxCell>
        <mxCell id="H5lp6cLrnP8mj0vaq85K-35" value="" style="rounded=0;whiteSpace=wrap;html=1;fillColor=#f8cecc;strokeColor=#b85450;align=left;verticalAlign=top;" vertex="1" parent="1">
          <mxGeometry x="375" y="53" width="65" height="115" as="geometry" />
        </mxCell>
        <mxCell id="H5lp6cLrnP8mj0vaq85K-19" value="" style="rounded=0;whiteSpace=wrap;html=1;" vertex="1" parent="1">
          <mxGeometry x="380" y="103" width="10" height="60" as="geometry" />
        </mxCell>
        <mxCell id="H5lp6cLrnP8mj0vaq85K-20" value="" style="rounded=0;whiteSpace=wrap;html=1;" vertex="1" parent="1">
          <mxGeometry x="395" y="83" width="10" height="80" as="geometry" />
        </mxCell>
        <mxCell id="H5lp6cLrnP8mj0vaq85K-21" value="" style="rounded=0;whiteSpace=wrap;html=1;" vertex="1" parent="1">
          <mxGeometry x="410" y="73" width="10" height="90" as="geometry" />
        </mxCell>
        <mxCell id="H5lp6cLrnP8mj0vaq85K-22" value="" style="rounded=0;whiteSpace=wrap;html=1;" vertex="1" parent="1">
          <mxGeometry x="425" y="93" width="10" height="70" as="geometry" />
        </mxCell>
        <mxCell id="H5lp6cLrnP8mj0vaq85K-23" value="" style="rounded=0;whiteSpace=wrap;html=1;" vertex="1" parent="1">
          <mxGeometry x="450" y="113" width="10" height="50" as="geometry" />
        </mxCell>
        <mxCell id="H5lp6cLrnP8mj0vaq85K-25" value="" style="rounded=0;whiteSpace=wrap;html=1;" vertex="1" parent="1">
          <mxGeometry x="480" y="143" width="10" height="20" as="geometry" />
        </mxCell>
        <mxCell id="H5lp6cLrnP8mj0vaq85K-26" value="" style="rounded=0;whiteSpace=wrap;html=1;" vertex="1" parent="1">
          <mxGeometry x="495" y="133" width="10" height="30" as="geometry" />
        </mxCell>
        <mxCell id="H5lp6cLrnP8mj0vaq85K-27" value="" style="rounded=0;whiteSpace=wrap;html=1;" vertex="1" parent="1">
          <mxGeometry x="520" y="103" width="10" height="60" as="geometry" />
        </mxCell>
        <mxCell id="H5lp6cLrnP8mj0vaq85K-28" value="" style="rounded=0;whiteSpace=wrap;html=1;" vertex="1" parent="1">
          <mxGeometry x="535" y="113" width="10" height="50" as="geometry" />
        </mxCell>
        <mxCell id="H5lp6cLrnP8mj0vaq85K-29" value="" style="rounded=0;whiteSpace=wrap;html=1;" vertex="1" parent="1">
          <mxGeometry x="550" y="123" width="10" height="40" as="geometry" />
        </mxCell>
        <mxCell id="H5lp6cLrnP8mj0vaq85K-30" value="" style="rounded=0;whiteSpace=wrap;html=1;" vertex="1" parent="1">
          <mxGeometry x="565" y="93" width="10" height="70" as="geometry" />
        </mxCell>
        <mxCell id="H5lp6cLrnP8mj0vaq85K-31" value="" style="rounded=0;whiteSpace=wrap;html=1;" vertex="1" parent="1">
          <mxGeometry x="590" y="63" width="10" height="100" as="geometry" />
        </mxCell>
        <mxCell id="H5lp6cLrnP8mj0vaq85K-32" value="" style="rounded=0;whiteSpace=wrap;html=1;" vertex="1" parent="1">
          <mxGeometry x="605" y="83" width="10" height="80" as="geometry" />
        </mxCell>
        <mxCell id="H5lp6cLrnP8mj0vaq85K-33" value="" style="rounded=0;whiteSpace=wrap;html=1;" vertex="1" parent="1">
          <mxGeometry x="620" y="143" width="10" height="20" as="geometry" />
        </mxCell>
        <mxCell id="H5lp6cLrnP8mj0vaq85K-34" value="" style="rounded=0;whiteSpace=wrap;html=1;" vertex="1" parent="1">
          <mxGeometry x="635" y="113" width="10" height="50" as="geometry" />
        </mxCell>
        <mxCell id="H5lp6cLrnP8mj0vaq85K-37" value="&lt;font style=&quot;font-size: 9px;&quot;&gt;proc 0&lt;/font&gt;" style="text;html=1;strokeColor=none;fillColor=none;align=center;verticalAlign=middle;whiteSpace=wrap;rounded=0;" vertex="1" parent="1">
          <mxGeometry x="374" y="50" width="35" height="20" as="geometry" />
        </mxCell>
        <mxCell id="H5lp6cLrnP8mj0vaq85K-39" value="&lt;font style=&quot;font-size: 9px;&quot;&gt;proc 1&lt;/font&gt;" style="text;html=1;strokeColor=none;fillColor=none;align=center;verticalAlign=middle;whiteSpace=wrap;rounded=0;" vertex="1" parent="1">
          <mxGeometry x="445" y="91" width="35" height="20" as="geometry" />
        </mxCell>
        <mxCell id="H5lp6cLrnP8mj0vaq85K-42" value="&lt;font style=&quot;font-size: 9px;&quot;&gt;proc 2&lt;/font&gt;" style="text;html=1;strokeColor=none;fillColor=none;align=center;verticalAlign=middle;whiteSpace=wrap;rounded=0;" vertex="1" parent="1">
          <mxGeometry x="514" y="69" width="35" height="20" as="geometry" />
        </mxCell>
        <mxCell id="H5lp6cLrnP8mj0vaq85K-43" value="&lt;font style=&quot;font-size: 9px;&quot;&gt;proc 3&lt;/font&gt;" style="text;html=1;strokeColor=none;fillColor=none;align=center;verticalAlign=middle;whiteSpace=wrap;rounded=0;" vertex="1" parent="1">
          <mxGeometry x="582.5" y="40" width="35" height="20" as="geometry" />
        </mxCell>
        <mxCell id="H5lp6cLrnP8mj0vaq85K-44" value="" style="rounded=0;whiteSpace=wrap;html=1;" vertex="1" parent="1">
          <mxGeometry x="465" y="133" width="10" height="30" as="geometry" />
        </mxCell>
        <mxCell id="H5lp6cLrnP8mj0vaq85K-237" value="" style="group" vertex="1" connectable="0" parent="1">
          <mxGeometry x="58.5" y="63" width="238.5" height="100" as="geometry" />
        </mxCell>
        <mxCell id="H5lp6cLrnP8mj0vaq85K-220" value="" style="rounded=0;whiteSpace=wrap;html=1;fillColor=#f8cecc;strokeColor=#b85450;" vertex="1" parent="H5lp6cLrnP8mj0vaq85K-237">
          <mxGeometry y="40" width="10" height="60" as="geometry" />
        </mxCell>
        <mxCell id="H5lp6cLrnP8mj0vaq85K-221" value="" style="rounded=0;whiteSpace=wrap;html=1;fillColor=#d5e8d4;strokeColor=#82b366;" vertex="1" parent="H5lp6cLrnP8mj0vaq85K-237">
          <mxGeometry x="15.5" y="50" width="10" height="50" as="geometry" />
        </mxCell>
        <mxCell id="H5lp6cLrnP8mj0vaq85K-222" value="" style="rounded=0;whiteSpace=wrap;html=1;fillColor=#fff2cc;strokeColor=#d6b656;" vertex="1" parent="H5lp6cLrnP8mj0vaq85K-237">
          <mxGeometry x="30.5" y="40" width="10" height="60" as="geometry" />
        </mxCell>
        <mxCell id="H5lp6cLrnP8mj0vaq85K-223" value="" style="rounded=0;whiteSpace=wrap;html=1;fillColor=#dae8fc;strokeColor=#6c8ebf;" vertex="1" parent="H5lp6cLrnP8mj0vaq85K-237">
          <mxGeometry x="45.5" width="10" height="100" as="geometry" />
        </mxCell>
        <mxCell id="H5lp6cLrnP8mj0vaq85K-224" value="" style="rounded=0;whiteSpace=wrap;html=1;fillColor=#f8cecc;strokeColor=#b85450;" vertex="1" parent="H5lp6cLrnP8mj0vaq85K-237">
          <mxGeometry x="61.5" y="20" width="10" height="80" as="geometry" />
        </mxCell>
        <mxCell id="H5lp6cLrnP8mj0vaq85K-225" value="" style="rounded=0;whiteSpace=wrap;html=1;fillColor=#fff2cc;strokeColor=#d6b656;" vertex="1" parent="H5lp6cLrnP8mj0vaq85K-237">
          <mxGeometry x="93.5" y="50" width="10" height="50" as="geometry" />
        </mxCell>
        <mxCell id="H5lp6cLrnP8mj0vaq85K-226" value="" style="rounded=0;whiteSpace=wrap;html=1;fillColor=#dae8fc;strokeColor=#6c8ebf;" vertex="1" parent="H5lp6cLrnP8mj0vaq85K-237">
          <mxGeometry x="108.5" y="20" width="10" height="80" as="geometry" />
        </mxCell>
        <mxCell id="H5lp6cLrnP8mj0vaq85K-227" value="" style="rounded=0;whiteSpace=wrap;html=1;fillColor=#d5e8d4;strokeColor=#82b366;" vertex="1" parent="H5lp6cLrnP8mj0vaq85K-237">
          <mxGeometry x="77.5" y="70" width="10" height="30" as="geometry" />
        </mxCell>
        <mxCell id="H5lp6cLrnP8mj0vaq85K-228" value="" style="rounded=0;whiteSpace=wrap;html=1;fillColor=#f8cecc;strokeColor=#b85450;" vertex="1" parent="H5lp6cLrnP8mj0vaq85K-237">
          <mxGeometry x="123.5" y="10" width="10" height="90" as="geometry" />
        </mxCell>
        <mxCell id="H5lp6cLrnP8mj0vaq85K-229" value="" style="rounded=0;whiteSpace=wrap;html=1;fillColor=#d5e8d4;strokeColor=#82b366;" vertex="1" parent="H5lp6cLrnP8mj0vaq85K-237">
          <mxGeometry x="138.5" y="80" width="10" height="20" as="geometry" />
        </mxCell>
        <mxCell id="H5lp6cLrnP8mj0vaq85K-230" value="" style="rounded=0;whiteSpace=wrap;html=1;fillColor=#fff2cc;strokeColor=#d6b656;" vertex="1" parent="H5lp6cLrnP8mj0vaq85K-237">
          <mxGeometry x="153.5" y="60" width="10" height="40" as="geometry" />
        </mxCell>
        <mxCell id="H5lp6cLrnP8mj0vaq85K-231" value="" style="rounded=0;whiteSpace=wrap;html=1;fillColor=#dae8fc;strokeColor=#6c8ebf;" vertex="1" parent="H5lp6cLrnP8mj0vaq85K-237">
          <mxGeometry x="168.5" y="80" width="10" height="20" as="geometry" />
        </mxCell>
        <mxCell id="H5lp6cLrnP8mj0vaq85K-233" value="" style="rounded=0;whiteSpace=wrap;html=1;fillColor=#f8cecc;strokeColor=#b85450;" vertex="1" parent="H5lp6cLrnP8mj0vaq85K-237">
          <mxGeometry x="183.5" y="30" width="10" height="70" as="geometry" />
        </mxCell>
        <mxCell id="H5lp6cLrnP8mj0vaq85K-234" value="" style="rounded=0;whiteSpace=wrap;html=1;fillColor=#d5e8d4;strokeColor=#82b366;" vertex="1" parent="H5lp6cLrnP8mj0vaq85K-237">
          <mxGeometry x="198.5" y="70" width="10" height="30" as="geometry" />
        </mxCell>
        <mxCell id="H5lp6cLrnP8mj0vaq85K-235" value="" style="rounded=0;whiteSpace=wrap;html=1;fillColor=#fff2cc;strokeColor=#d6b656;" vertex="1" parent="H5lp6cLrnP8mj0vaq85K-237">
          <mxGeometry x="213.5" y="30" width="10" height="70" as="geometry" />
        </mxCell>
        <mxCell id="H5lp6cLrnP8mj0vaq85K-236" value="" style="rounded=0;whiteSpace=wrap;html=1;fillColor=#dae8fc;strokeColor=#6c8ebf;" vertex="1" parent="H5lp6cLrnP8mj0vaq85K-237">
          <mxGeometry x="228.5" y="50" width="10" height="50" as="geometry" />
        </mxCell>
      </root>
    </mxGraphModel>
  </diagram>
</mxfile>
